<mxfile host="65bd71144e">
    <diagram id="qJbw2j9B7ppGZLjYoXpy" name="PÃ¡gina-1">
        <mxGraphModel dx="552" dy="475" grid="0" gridSize="10" guides="1" tooltips="1" connect="1" arrows="1" fold="1" page="1" pageScale="1" pageWidth="827" pageHeight="1169" background="#ffffff" math="0" shadow="1">
            <root>
                <mxCell id="0"/>
                <mxCell id="1" parent="0"/>
                <mxCell id="48" value="" style="rounded=0;whiteSpace=wrap;html=1;fillColor=#FFFFFF;strokeColor=#FFFFFF;" vertex="1" parent="1">
                    <mxGeometry x="24" y="314" width="775" height="544" as="geometry"/>
                </mxCell>
                <mxCell id="2" value="&lt;&lt;interface&gt;&gt;&#10;ReprodutorMusical" style="swimlane;startSize=60;fontStyle=1;fillColor=#FFFFFF;strokeColor=#000000;fontColor=#000000;fontFamily=Tahoma;strokeWidth=2;" parent="1" vertex="1">
                    <mxGeometry x="49" y="335" width="230" height="180" as="geometry"/>
                </mxCell>
                <mxCell id="17" value="&lt;span style=&quot;color: rgba(0, 0, 0, 0); font-family: monospace; font-size: 0px; text-align: start;&quot;&gt;%3CmxGraphModel%3E%3Croot%3E%3CmxCell%20id%3D%220%22%2F%3E%3CmxCell%20id%3D%221%22%20parent%3D%220%22%2F%3E%3CmxCell%20id%3D%222%22%20value%3D%22%26lt%3B%26lt%3Binterface%26gt%3B%26gt%3B%26%2310%3BNavegador%22%20style%3D%22swimlane%3BstartSize%3D60%3BfontStyle%3D1%3BfillColor%3D%23f9f7ed%3BstrokeColor%3D%2336393d%3BfontColor%3D%23000000%3BfontFamily%3DTahoma%3B%22%20vertex%3D%221%22%20parent%3D%221%22%3E%3CmxGeometry%20x%3D%22520%22%20y%3D%2240%22%20width%3D%22200%22%20height%3D%22180%22%20as%3D%22geometry%22%2F%3E%3C%2FmxCell%3E%3C%2Froot%3E%3C%2FmxGraphModel%3E&lt;/span&gt;" style="rounded=0;whiteSpace=wrap;html=1;fontFamily=Tahoma;fillColor=#FFFFFF;strokeColor=#000000;strokeWidth=2;" parent="2" vertex="1">
                    <mxGeometry y="120" width="230" height="60" as="geometry"/>
                </mxCell>
                <mxCell id="15" value="&lt;span style=&quot;font-family: monospace; font-size: 0px; text-align: start; background-color: rgb(0, 0, 0);&quot;&gt;&lt;font&gt;ttttt&lt;/font&gt;&lt;/span&gt;" style="rounded=0;whiteSpace=wrap;html=1;fontFamily=Tahoma;fillColor=#FFFFFF;strokeColor=#000000;strokeWidth=2;fontColor=#000000;" parent="2" vertex="1">
                    <mxGeometry y="60" width="230" height="60" as="geometry"/>
                </mxCell>
                <mxCell id="35" value="+ tocarMusica(): void&lt;br style=&quot;font-size: 11px;&quot;&gt;+ pausarMusica(): void&lt;br style=&quot;font-size: 11px;&quot;&gt;+ selecionarMusica(String musica): void&amp;nbsp;" style="text;html=1;strokeColor=none;fillColor=none;align=left;verticalAlign=middle;whiteSpace=wrap;rounded=0;labelBackgroundColor=none;strokeWidth=2;fontFamily=Tahoma;fontColor=#000000;fontSize=11;" parent="2" vertex="1">
                    <mxGeometry y="120" width="230" height="60" as="geometry"/>
                </mxCell>
                <mxCell id="4" value="&lt;&lt;interface&gt;&gt;&#10;AparelhoTelefonico" style="swimlane;startSize=60;fontStyle=1;fillColor=#FFFFFF;strokeColor=#000000;fontColor=#000000;fontFamily=Tahoma;strokeWidth=2;" parent="1" vertex="1">
                    <mxGeometry x="315" y="335" width="230" height="180" as="geometry"/>
                </mxCell>
                <mxCell id="18" value="&lt;span style=&quot;color: rgba(0, 0, 0, 0); font-family: monospace; font-size: 0px; text-align: start;&quot;&gt;%3CmxGraphModel%3E%3Croot%3E%3CmxCell%20id%3D%220%22%2F%3E%3CmxCell%20id%3D%221%22%20parent%3D%220%22%2F%3E%3CmxCell%20id%3D%222%22%20value%3D%22%26lt%3B%26lt%3Binterface%26gt%3B%26gt%3B%26%2310%3BNavegador%22%20style%3D%22swimlane%3BstartSize%3D60%3BfontStyle%3D1%3BfillColor%3D%23f9f7ed%3BstrokeColor%3D%2336393d%3BfontColor%3D%23000000%3BfontFamily%3DTahoma%3B%22%20vertex%3D%221%22%20parent%3D%221%22%3E%3CmxGeometry%20x%3D%22520%22%20y%3D%2240%22%20width%3D%22200%22%20height%3D%22180%22%20as%3D%22geometry%22%2F%3E%3C%2FmxCell%3E%3C%2Froot%3E%3C%2FmxGraphModel%3E&lt;/span&gt;" style="rounded=0;whiteSpace=wrap;html=1;fontFamily=Tahoma;fillColor=#FFFFFF;strokeColor=#000000;strokeWidth=2;" parent="4" vertex="1">
                    <mxGeometry y="60" width="230" height="60" as="geometry"/>
                </mxCell>
                <mxCell id="19" value="&lt;span style=&quot;color: rgba(0, 0, 0, 0); font-family: monospace; font-size: 0px; text-align: start;&quot;&gt;%3CmxGraphModel%3E%3Croot%3E%3CmxCell%20id%3D%220%22%2F%3E%3CmxCell%20id%3D%221%22%20parent%3D%220%22%2F%3E%3CmxCell%20id%3D%222%22%20value%3D%22%26lt%3B%26lt%3Binterface%26gt%3B%26gt%3B%26%2310%3BNavegador%22%20style%3D%22swimlane%3BstartSize%3D60%3BfontStyle%3D1%3BfillColor%3D%23f9f7ed%3BstrokeColor%3D%2336393d%3BfontColor%3D%23000000%3BfontFamily%3DTahoma%3B%22%20vertex%3D%221%22%20parent%3D%221%22%3E%3CmxGeometry%20x%3D%22520%22%20y%3D%2240%22%20width%3D%22200%22%20height%3D%22180%22%20as%3D%22geometry%22%2F%3E%3C%2FmxCell%3E%3C%2Froot%3E%3C%2FmxGraphModel%3E&lt;/span&gt;" style="rounded=0;whiteSpace=wrap;html=1;fontFamily=Tahoma;fillColor=#FFFFFF;strokeColor=#000000;strokeWidth=2;" parent="4" vertex="1">
                    <mxGeometry y="120" width="230" height="60" as="geometry"/>
                </mxCell>
                <mxCell id="36" value="+ ligar(String numero): void&lt;br style=&quot;font-size: 11px;&quot;&gt;+ atenderChamada(): void&lt;br style=&quot;font-size: 11px;&quot;&gt;+ encerrarChamada(): void&lt;br style=&quot;font-size: 11px;&quot;&gt;+ iniciarCorreioVoz(): void&amp;nbsp;" style="text;html=1;strokeColor=none;fillColor=none;align=left;verticalAlign=middle;whiteSpace=wrap;rounded=0;labelBackgroundColor=none;strokeWidth=2;fontFamily=Tahoma;fontColor=#000000;fontSize=11;" parent="4" vertex="1">
                    <mxGeometry y="120" width="230" height="60" as="geometry"/>
                </mxCell>
                <mxCell id="5" value="&lt;&lt;interface&gt;&gt;&#10;Navegador" style="swimlane;startSize=60;fontStyle=1;fillColor=#FFFFFF;strokeColor=#000000;fontColor=#000000;fontFamily=Tahoma;strokeWidth=2;" parent="1" vertex="1">
                    <mxGeometry x="579" y="335" width="200" height="180" as="geometry"/>
                </mxCell>
                <mxCell id="20" value="&lt;span style=&quot;color: rgba(0, 0, 0, 0); font-family: monospace; font-size: 0px; text-align: start;&quot;&gt;%3CmxGraphModel%3E%3Croot%3E%3CmxCell%20id%3D%220%22%2F%3E%3CmxCell%20id%3D%221%22%20parent%3D%220%22%2F%3E%3CmxCell%20id%3D%222%22%20value%3D%22%26lt%3B%26lt%3Binterface%26gt%3B%26gt%3B%26%2310%3BNavegador%22%20style%3D%22swimlane%3BstartSize%3D60%3BfontStyle%3D1%3BfillColor%3D%23f9f7ed%3BstrokeColor%3D%2336393d%3BfontColor%3D%23000000%3BfontFamily%3DTahoma%3B%22%20vertex%3D%221%22%20parent%3D%221%22%3E%3CmxGeometry%20x%3D%22520%22%20y%3D%2240%22%20width%3D%22200%22%20height%3D%22180%22%20as%3D%22geometry%22%2F%3E%3C%2FmxCell%3E%3C%2Froot%3E%3C%2FmxGraphModel%3E&lt;/span&gt;" style="rounded=0;whiteSpace=wrap;html=1;fontFamily=Tahoma;fillColor=#FFFFFF;strokeColor=#000000;strokeWidth=2;" parent="5" vertex="1">
                    <mxGeometry y="60" width="200" height="60" as="geometry"/>
                </mxCell>
                <mxCell id="21" value="&lt;span style=&quot;color: rgba(0, 0, 0, 0); font-family: monospace; font-size: 0px; text-align: start;&quot;&gt;%3CmxGraphModel%3E%3Croot%3E%3CmxCell%20id%3D%220%22%2F%3E%3CmxCell%20id%3D%221%22%20parent%3D%220%22%2F%3E%3CmxCell%20id%3D%222%22%20value%3D%22%26lt%3B%26lt%3Binterface%26gt%3B%26gt%3B%26%2310%3BNavegador%22%20style%3D%22swimlane%3BstartSize%3D60%3BfontStyle%3D1%3BfillColor%3D%23f9f7ed%3BstrokeColor%3D%2336393d%3BfontColor%3D%23000000%3BfontFamily%3DTahoma%3B%22%20vertex%3D%221%22%20parent%3D%221%22%3E%3CmxGeometry%20x%3D%22520%22%20y%3D%2240%22%20width%3D%22200%22%20height%3D%22180%22%20as%3D%22geometry%22%2F%3E%3C%2FmxCell%3E%3C%2Froot%3E%3C%2FmxGraphModel%3E&lt;/span&gt;" style="rounded=0;whiteSpace=wrap;html=1;fontFamily=Tahoma;fillColor=#FFFFFF;strokeColor=#000000;strokeWidth=2;" parent="5" vertex="1">
                    <mxGeometry y="120" width="200" height="60" as="geometry"/>
                </mxCell>
                <mxCell id="37" value="+ exibirPagina(String url): void&lt;br style=&quot;font-size: 11px;&quot;&gt;+ adicionarNovaAba(): void&lt;br style=&quot;font-size: 11px;&quot;&gt;+ atualizarPagina(): void&amp;nbsp;" style="text;html=1;strokeColor=none;fillColor=none;align=left;verticalAlign=middle;whiteSpace=wrap;rounded=0;labelBackgroundColor=none;strokeWidth=2;fontFamily=Tahoma;fontColor=#000000;fontSize=11;" parent="5" vertex="1">
                    <mxGeometry y="120" width="200" height="60" as="geometry"/>
                </mxCell>
                <mxCell id="7" style="edgeStyle=none;html=1;fontFamily=Tahoma;fontColor=#000000;strokeColor=#000000;strokeWidth=2;startArrow=diamondThin;startFill=1;startSize=20;entryX=0.5;entryY=1;entryDx=0;entryDy=0;" parent="1" source="6" target="36" edge="1">
                    <mxGeometry relative="1" as="geometry">
                        <mxPoint x="419" y="575" as="targetPoint"/>
                    </mxGeometry>
                </mxCell>
                <mxCell id="8" style="edgeStyle=none;html=1;fontFamily=Tahoma;fontColor=#000000;strokeWidth=2;strokeColor=#000000;entryX=0.5;entryY=1;entryDx=0;entryDy=0;endArrow=classic;endFill=1;startArrow=diamondThin;startFill=1;exitX=0.75;exitY=0;exitDx=0;exitDy=0;startSize=20;" parent="1" source="6" target="21" edge="1">
                    <mxGeometry relative="1" as="geometry">
                        <mxPoint x="669" y="575" as="targetPoint"/>
                        <mxPoint x="559" y="665" as="sourcePoint"/>
                    </mxGeometry>
                </mxCell>
                <mxCell id="9" style="edgeStyle=none;html=1;entryX=0.5;entryY=1;entryDx=0;entryDy=0;fontFamily=Tahoma;fontColor=#000000;exitX=0.25;exitY=0;exitDx=0;exitDy=0;strokeColor=#000000;strokeWidth=2;startArrow=diamondThin;startFill=1;sourcePerimeterSpacing=0;targetPerimeterSpacing=0;startSize=20;" parent="1" source="6" target="2" edge="1">
                    <mxGeometry relative="1" as="geometry"/>
                </mxCell>
                <mxCell id="6" value="IPhone" style="swimlane;startSize=41;fontStyle=1;fillColor=#FFFFFF;strokeColor=#000000;fontColor=#000000;fontFamily=Tahoma;strokeWidth=2;" parent="1" vertex="1">
                    <mxGeometry x="330" y="671" width="200" height="164" as="geometry"/>
                </mxCell>
                <mxCell id="31" value="&lt;span style=&quot;color: rgba(0, 0, 0, 0); font-family: monospace; font-size: 0px; text-align: start;&quot;&gt;%3CmxGraphModel%3E%3Croot%3E%3CmxCell%20id%3D%220%22%2F%3E%3CmxCell%20id%3D%221%22%20parent%3D%220%22%2F%3E%3CmxCell%20id%3D%222%22%20value%3D%22%26lt%3B%26lt%3Binterface%26gt%3B%26gt%3B%26%2310%3BNavegador%22%20style%3D%22swimlane%3BstartSize%3D60%3BfontStyle%3D1%3BfillColor%3D%23f9f7ed%3BstrokeColor%3D%2336393d%3BfontColor%3D%23000000%3BfontFamily%3DTahoma%3B%22%20vertex%3D%221%22%20parent%3D%221%22%3E%3CmxGeometry%20x%3D%22520%22%20y%3D%2240%22%20width%3D%22200%22%20height%3D%22180%22%20as%3D%22geometry%22%2F%3E%3C%2FmxCell%3E%3C%2Froot%3E%3C%2FmxGraphModel%3E&lt;/span&gt;" style="rounded=0;whiteSpace=wrap;html=1;fontFamily=Tahoma;fillColor=#FFFFFF;strokeColor=#000000;strokeWidth=2;" parent="6" vertex="1">
                    <mxGeometry y="37.25" width="200" height="63" as="geometry"/>
                </mxCell>
                <mxCell id="40" value="&lt;span style=&quot;color: rgba(0, 0, 0, 0); font-family: monospace; font-size: 0px; text-align: start;&quot;&gt;%3CmxGraphModel%3E%3Croot%3E%3CmxCell%20id%3D%220%22%2F%3E%3CmxCell%20id%3D%221%22%20parent%3D%220%22%2F%3E%3CmxCell%20id%3D%222%22%20value%3D%22%26lt%3B%26lt%3Binterface%26gt%3B%26gt%3B%26%2310%3BNavegador%22%20style%3D%22swimlane%3BstartSize%3D60%3BfontStyle%3D1%3BfillColor%3D%23f9f7ed%3BstrokeColor%3D%2336393d%3BfontColor%3D%23000000%3BfontFamily%3DTahoma%3B%22%20vertex%3D%221%22%20parent%3D%221%22%3E%3CmxGeometry%20x%3D%22520%22%20y%3D%2240%22%20width%3D%22200%22%20height%3D%22180%22%20as%3D%22geometry%22%2F%3E%3C%2FmxCell%3E%3C%2Froot%3E%3C%2FmxGraphModel%3E&lt;/span&gt;" style="rounded=0;whiteSpace=wrap;html=1;fontFamily=Tahoma;fillColor=#FFFFFF;strokeColor=#000000;strokeWidth=2;" parent="6" vertex="1">
                    <mxGeometry y="100.25" width="200" height="63" as="geometry"/>
                </mxCell>
                <mxCell id="39" value="+ ligarDispositivo(): void&lt;br&gt;+ desligarDispositivo(): void&lt;br style=&quot;font-size: 11px;&quot;&gt;+ aumentarVolume(): void&lt;br style=&quot;font-size: 11px;&quot;&gt;+ diminuirVolume(): void&amp;nbsp;" style="text;html=1;strokeColor=none;fillColor=none;align=left;verticalAlign=middle;whiteSpace=wrap;rounded=0;labelBackgroundColor=none;strokeWidth=2;fontFamily=Tahoma;fontColor=#000000;fontSize=11;" parent="6" vertex="1">
                    <mxGeometry y="100.25" width="200" height="60" as="geometry"/>
                </mxCell>
                <mxCell id="45" value="- estadoDispositivo: String&lt;br&gt;- volumeDispositivo: int" style="text;html=1;strokeColor=none;fillColor=none;align=left;verticalAlign=middle;whiteSpace=wrap;rounded=0;labelBackgroundColor=none;strokeWidth=2;fontFamily=Tahoma;fontColor=#000000;fontSize=11;" parent="6" vertex="1">
                    <mxGeometry y="37.25" width="200" height="60" as="geometry"/>
                </mxCell>
                <mxCell id="32" value="1." style="text;html=1;strokeColor=none;fillColor=none;align=center;verticalAlign=middle;whiteSpace=wrap;rounded=0;strokeWidth=2;fontFamily=Tahoma;fontColor=#000000;rotation=0;" parent="1" vertex="1">
                    <mxGeometry x="399" y="515" width="20" height="30" as="geometry"/>
                </mxCell>
                <mxCell id="33" value="1." style="text;html=1;strokeColor=none;fillColor=none;align=center;verticalAlign=middle;whiteSpace=wrap;rounded=0;strokeWidth=2;fontFamily=Tahoma;fontColor=#000000;rotation=0;" parent="1" vertex="1">
                    <mxGeometry x="149" y="515" width="20" height="30" as="geometry"/>
                </mxCell>
                <mxCell id="34" value="1." style="text;html=1;strokeColor=none;fillColor=none;align=center;verticalAlign=middle;whiteSpace=wrap;rounded=0;strokeWidth=2;fontFamily=Tahoma;fontColor=#000000;rotation=0;" parent="1" vertex="1">
                    <mxGeometry x="619" y="515" width="20" height="30" as="geometry"/>
                </mxCell>
            </root>
        </mxGraphModel>
    </diagram>
</mxfile>